<?xml version="1.0" encoding="UTF-8"?>
<svg id="Layer_1" data-name="Layer 1" xmlns="http://www.w3.org/2000/svg" viewBox="0 0 124.29 28.88"><title>MasterWordmarks</title><path d="M16.56,21.47l-2.39-6H5.89l-2.39,6H0L8.49.07h3.07l8.49,21.4ZM10,5,7.11,12.36h5.83Z" style="fill:#fff"/><path d="M33.24,19A5.85,5.85,0,0,1,28,21.81,6.39,6.39,0,0,1,25,21.13v7.08H21.89V6.57H25V7A6.39,6.39,0,0,1,28,6.35,5.85,5.85,0,0,1,33.24,9.2a9.25,9.25,0,0,1,1,4.91A9.41,9.41,0,0,1,33.24,19Zm-2.73-8.22A2.75,2.75,0,0,0,28,9.48a2.7,2.7,0,0,0-2.55,1.26,3.5,3.5,0,0,0-.4,1.38V16a3.5,3.5,0,0,0,.4,1.38A2.77,2.77,0,0,0,28,18.71a2.77,2.77,0,0,0,2.55-1.29,6.53,6.53,0,0,0,.61-3.34A6.8,6.8,0,0,0,30.51,10.74Z" style="fill:#fff"/><path d="M47.89,19a5.85,5.85,0,0,1-5.27,2.85,6.38,6.38,0,0,1-2.94-.67v7.08H36.55V6.57h3.13V7a6.38,6.38,0,0,1,2.94-.67A5.85,5.85,0,0,1,47.89,9.2a9.27,9.27,0,0,1,1,4.91A9.41,9.41,0,0,1,47.89,19Zm-2.73-8.22a2.75,2.75,0,0,0-2.55-1.26,2.7,2.7,0,0,0-2.55,1.26,3.47,3.47,0,0,0-.4,1.38V16a3.47,3.47,0,0,0,.4,1.38,3.16,3.16,0,0,0,5.09,0,6.53,6.53,0,0,0,.61-3.34A6.8,6.8,0,0,0,45.16,10.74Z" style="fill:#fff"/><path d="M70.37,3.63V0h3.09V3.63Z" style="fill:#fff"/><path d="M91.39,3.63V0h3.09V3.63Z" style="fill:#fff"/><path d="M51.75,21.35V0h7.63c2.69,0,7.22.79,7.22,6.05a4.89,4.89,0,0,1-1.78,3.85l-.34.27.38.22a5.2,5.2,0,0,1,2.52,4.68c0,5.18-4.06,6.27-7.47,6.27Zm3.36-3.14h4.8c2,0,4.11-.37,4.11-3.1S61.82,12,59.91,12h-4.8Zm0-9.12h4.36c1.79,0,3.85-.34,3.85-3,0-2.94-2.72-2.94-3.88-2.94H55.11Z" style="fill:#fff"/><path d="M70.38,21.35V6.48h3.08V21.35Z" style="fill:#fff"/><path d="M81.39,21.34c-3-.1-4.18-1.23-4.18-4V0h3V17.31a1.27,1.27,0,0,0,1.23,1.44Z" style="fill:#fff"/><path d="M88.53,21.34c-3-.1-4.18-1.23-4.18-4V0h3V17.31a1.27,1.27,0,0,0,1.23,1.44Z" style="fill:#fff"/><path d="M91.37,21.35V6.48h3.08V21.35Z" style="fill:#fff"/><path d="M106.36,21.35V13c0-1.74-.34-3.73-3-3.73a2.85,2.85,0,0,0-2.85,2.85v9.23H97.33V6.48h2.52l.17,1.3.43-.45a4.46,4.46,0,0,1,3-1.17c4,0,6.05,2.28,6.05,6.78v8.41Z" style="fill:#fff"/><path d="M124.29,6.38h-3.21v.47a6.56,6.56,0,0,0-3-.69,6,6,0,0,0-5.42,2.93,9.51,9.51,0,0,0-1,5,9.67,9.67,0,0,0,1,5A6,6,0,0,0,118.05,22a6.56,6.56,0,0,0,3-.69v.82c0,2.25-.34,3.42-2.62,3.6a8.08,8.08,0,0,1-1.41,0,4.86,4.86,0,0,1-2-.62l-1.87,2.42a7,7,0,0,0,4.62,1.31c2.77,0,4.57-.79,5.58-2.39a8,8,0,0,0,.94-4.25V6.38Zm-3.62,11.15a3.24,3.24,0,0,1-5.23,0,6.71,6.71,0,0,1-.63-3.43,7,7,0,0,1,.63-3.43,2.83,2.83,0,0,1,2.61-1.29,2.77,2.77,0,0,1,2.61,1.29,3.58,3.58,0,0,1,.41,1.42v4A3.58,3.58,0,0,1,120.67,17.54Z" style="fill:#fff"/></svg>
