<svg id="Layer_1" data-name="Layer 1" xmlns="http://www.w3.org/2000/svg" viewBox="0 0 141.92 29"><title>MasterWordmarks</title><path d="M33.24,18.89A5.85,5.85,0,0,1,28,21.74,6.39,6.39,0,0,1,25,21.07v7.08H21.89V6.5H25V7A6.39,6.39,0,0,1,28,6.29a5.85,5.85,0,0,1,5.27,2.85,9.26,9.26,0,0,1,1,4.91A9.41,9.41,0,0,1,33.24,18.89Zm-2.73-8.22A2.75,2.75,0,0,0,28,9.41a2.7,2.7,0,0,0-2.55,1.26,3.48,3.48,0,0,0-.4,1.38V16a3.48,3.48,0,0,0,.4,1.38A2.77,2.77,0,0,0,28,18.64a2.77,2.77,0,0,0,2.55-1.29A6.53,6.53,0,0,0,31.12,14,6.8,6.8,0,0,0,30.51,10.67Z" style="fill:#fff"/><path d="M47.89,18.89a5.85,5.85,0,0,1-5.27,2.85,6.39,6.39,0,0,1-2.94-.67v7.08H36.55V6.5h3.13V7a6.39,6.39,0,0,1,2.94-.67,5.85,5.85,0,0,1,5.27,2.85,9.26,9.26,0,0,1,1,4.91A9.41,9.41,0,0,1,47.89,18.89Zm-2.73-8.22a2.75,2.75,0,0,0-2.55-1.26,2.7,2.7,0,0,0-2.55,1.26,3.48,3.48,0,0,0-.4,1.38V16a3.48,3.48,0,0,0,.4,1.38,3.16,3.16,0,0,0,5.09,0A6.53,6.53,0,0,0,45.78,14,6.8,6.8,0,0,0,45.16,10.67Z" style="fill:#fff"/><path d="M16.56,21.4l-2.39-6H5.89l-2.39,6H0L8.49,0h3.07l8.49,21.4ZM10,4.94,7.11,12.3h5.83Z" style="fill:#fff"/><path d="M51.46,21.4V0h3.34V21.4Z" style="fill:#fff"/><path d="M66.88,21.4V12.82a4.67,4.67,0,0,0-.55-2.67,3.07,3.07,0,0,0-2.61-1,2.91,2.91,0,0,0-2.58,1.26,3.2,3.2,0,0,0-.37.92V21.4H57.65V6.5h3.13V7a6.8,6.8,0,0,1,2.94-.67c2.18,0,4.14.61,5.24,2.21a7.46,7.46,0,0,1,1,4.32V21.4Z" style="fill:#fff"/><path d="M78.38,21.68c-3,0-5.3-1.26-6.26-4.23l3.1-.58c.61,1.56,1.56,1.81,3.16,1.81,1,0,2.7-.4,2.7-1.75,0-3.07-8.52-.89-8.52-6.41,0-3,2.76-4.26,5.4-4.26,2.33,0,4.42.77,5.58,2.91l-2.82,1.38c-.64-1.1-1.56-1.26-2.76-1.26s-2.27.21-2.27,1.23c0,2.09,8.52.52,8.52,6.41C84.21,20.09,81.2,21.68,78.38,21.68Z" style="fill:#fff"/><path d="M86.58,21.4V6.26h3.16V21.4Z" style="fill:#fff"/><path d="M116.8,21.4V13a4.94,4.94,0,0,0-.55-2.76,3,3,0,0,0-2.61-1.07,2.86,2.86,0,0,0-2.55,1.26,3.15,3.15,0,0,0-.4,1v10h-3.13V0h3.13V6.68A6.8,6.8,0,0,1,113.64,6a6.14,6.14,0,0,1,5.24,2.48,8,8,0,0,1,1,4.48V21.4Z" style="fill:#fff"/><path d="M125.61,9.08v8.34a2.47,2.47,0,0,0,0,.67.36.36,0,0,0,.37.21h1.35v3.1H126a3.25,3.25,0,0,1-2.85-1.53,4.5,4.5,0,0,1-.55-2.45V2.21h3v4h2.09V9.08Z" style="fill:#fff"/><path d="M136.09,21.68c-3,0-5.3-1.26-6.26-4.23l3.1-.58c.61,1.56,1.56,1.81,3.16,1.81,1,0,2.7-.4,2.7-1.75,0-3.07-8.52-.89-8.52-6.41,0-3,2.76-4.26,5.4-4.26,2.33,0,4.42.77,5.58,2.91l-2.82,1.38c-.64-1.1-1.56-1.26-2.76-1.26s-2.27.21-2.27,1.23c0,2.09,8.52.52,8.52,6.41C141.92,20.09,138.91,21.68,136.09,21.68Z" style="fill:#fff"/><path d="M104.77,6.51h-3.21V7a6.56,6.56,0,0,0-3-.69,6,6,0,0,0-5.42,2.93,9.51,9.51,0,0,0-1,5,9.67,9.67,0,0,0,1,5,6,6,0,0,0,5.42,2.93,6.56,6.56,0,0,0,3-.69v.82c0,2.25-.34,3.42-2.62,3.6a8.08,8.08,0,0,1-1.41,0,4.86,4.86,0,0,1-2-.62l-1.87,2.42A7,7,0,0,0,98.25,29c2.77,0,4.57-.79,5.58-2.39a8,8,0,0,0,.94-4.25V6.51Zm-3.62,11.15a3.24,3.24,0,0,1-5.23,0,6.71,6.71,0,0,1-.63-3.43,7,7,0,0,1,.63-3.43A2.83,2.83,0,0,1,98.53,9.5a2.77,2.77,0,0,1,2.61,1.29,3.58,3.58,0,0,1,.41,1.42v4A3.58,3.58,0,0,1,101.14,17.66Z" style="fill:#fff"/><path d="M86.58,3.63V0h3.16V3.63Z" style="fill:#fff"/></svg>