<?xml version="1.0" encoding="UTF-8"?>
<svg id="Layer_1" data-name="Layer 1" xmlns="http://www.w3.org/2000/svg" viewBox="0 0 132.73 28.61"><title>MasterWordmarks</title><path d="M16.56,21.87l-2.39-6H5.89l-2.39,6H0L8.49.46h3.07l8.49,21.4ZM10,5.4,7.11,12.76h5.83Z" style="fill:#fff"/><path d="M33.24,19.35A5.85,5.85,0,0,1,28,22.2,6.39,6.39,0,0,1,25,21.53v7.08H21.89V7H25v.46A6.39,6.39,0,0,1,28,6.75,5.85,5.85,0,0,1,33.24,9.6a9.25,9.25,0,0,1,1,4.91A9.41,9.41,0,0,1,33.24,19.35Zm-2.73-8.22A2.75,2.75,0,0,0,28,9.88a2.7,2.7,0,0,0-2.55,1.26,3.5,3.5,0,0,0-.4,1.38v3.93a3.5,3.5,0,0,0,.4,1.38A2.77,2.77,0,0,0,28,19.11a2.77,2.77,0,0,0,2.55-1.29,6.53,6.53,0,0,0,.61-3.34A6.8,6.8,0,0,0,30.51,11.13Z" style="fill:#fff"/><path d="M47.89,19.35a5.85,5.85,0,0,1-5.27,2.85,6.38,6.38,0,0,1-2.94-.67v7.08H36.55V7h3.13v.46a6.38,6.38,0,0,1,2.94-.67A5.85,5.85,0,0,1,47.89,9.6a9.27,9.27,0,0,1,1,4.91A9.41,9.41,0,0,1,47.89,19.35Zm-2.73-8.22a2.75,2.75,0,0,0-2.55-1.26,2.7,2.7,0,0,0-2.55,1.26,3.47,3.47,0,0,0-.4,1.38v3.93a3.47,3.47,0,0,0,.4,1.38,3.16,3.16,0,0,0,5.09,0,6.53,6.53,0,0,0,.61-3.34A6.8,6.8,0,0,0,45.16,11.13Z" style="fill:#fff"/><polygon points="67.92 21.71 67.92 8.92 62.95 21.71 60.55 21.71 55.61 8.96 55.61 21.71 52.18 21.71 52.18 0 55.46 0 61.75 16.3 68.1 0 71.35 0 71.35 21.71 67.92 21.71" style="fill:#fff"/><path d="M79.2,22.08c-2.79,0-5.6-1.51-5.6-4.9,0-2.86,2-4.58,5.44-4.74h2.3A1.47,1.47,0,0,0,82.59,12V11.1a2.21,2.21,0,0,0-2.41-2,3.18,3.18,0,0,0-3.1,1.72L77,11l-2.82-1,.06-.18c.86-2.42,2.92-3.7,6-3.7,2.62,0,5.45,1.79,5.45,4.68v8.07l.59,2.4-2.83.7L83.1,20.8A6.43,6.43,0,0,1,79.2,22.08ZM79.26,15c-.63,0-2.66.21-2.66,2.23,0,1.52,1.59,2.07,2.65,2.07a4.78,4.78,0,0,0,3.33-1.33V14.68a2.5,2.5,0,0,1-1.25.28Z" style="fill:#fff"/><path d="M88.61,21.71V6.42h2.78l.07,1.06a4.89,4.89,0,0,1,3.42-1.37A5.84,5.84,0,0,1,98,7l.15.09-1.25,2.6-.16-.06a5.67,5.67,0,0,0-1.83-.39,2.77,2.77,0,0,0-3,2.68v9.78Z" style="fill:#fff"/><polygon points="108.93 21.71 103.25 13.75 103.25 21.71 100.1 21.71 100.1 0 103.25 0 103.25 13.09 108.04 6.42 111.57 6.42 106.48 13.39 112.58 21.71 108.93 21.71" style="fill:#fff"/><path d="M119.29,22c-4.39,0-7.13-3-7.13-7.89s2.65-7.92,6.91-7.92c3.72,0,6,2.81,6,7.34v1.35h-9.56c.11,1.9.87,4.06,3.78,4.06a4.33,4.33,0,0,0,3.31-1.44l.13-.15,2.11,2-.13.13A7.12,7.12,0,0,1,119.29,22ZM122,12.59c-.22-2.26-1.21-3.35-3-3.35s-3.12,1.13-3.42,3.35Z" style="fill:#fff"/><path d="M130.93,21.71c-2.28,0-3.64-1.52-3.64-4.07V2.2h3.22V6.42h2.23V9.27H130.5v8.16c0,1.06.4,1.43,1.52,1.43h.19v2.85Z" style="fill:#fff"/></svg>
