<svg id="Layer_1" data-name="Layer 1" xmlns="http://www.w3.org/2000/svg" viewBox="0 0 109.52 28.15"><title>MasterWordmarks</title><path d="M100,15a4.68,4.68,0,0,0,.61,2.18,3.68,3.68,0,0,0,3.1,1.38,4,4,0,0,0,3.19-1.44L109.41,19a7.26,7.26,0,0,1-5.67,2.58A6.68,6.68,0,0,1,98,18.84a9,9,0,0,1-1.17-5,9,9,0,0,1,1.17-5,6.28,6.28,0,0,1,5.49-2.67,5.88,5.88,0,0,1,5.12,2.7c1.1,1.66,1,4.2.92,6.13Zm5.95-4.51a2.78,2.78,0,0,0-2.51-1.29A3.06,3.06,0,0,0,100.08,12h6.22A4,4,0,0,0,105.94,10.5Z" style="fill:#fff"/><path d="M89.63,21.54c-3,0-5.3-1.26-6.26-4.23l3.1-.58c.61,1.56,1.57,1.81,3.16,1.81,1,0,2.7-.4,2.7-1.75,0-3.07-8.52-.89-8.52-6.41,0-3,2.76-4.26,5.4-4.26,2.33,0,4.41.77,5.58,2.91L92,10.41c-.65-1.1-1.57-1.26-2.76-1.26s-2.27.21-2.27,1.23c0,2.09,8.52.52,8.52,6.41C95.46,19.95,92.45,21.54,89.63,21.54Z" style="fill:#fff"/><path d="M16.56,21.4l-2.39-6H5.89l-2.39,6H0L8.49,0h3.07l8.49,21.4ZM10,4.94,7.11,12.3h5.83Z" style="fill:#fff"/><path d="M33.24,18.89A5.85,5.85,0,0,1,28,21.74,6.39,6.39,0,0,1,25,21.07v7.08H21.89V6.5H25V7A6.39,6.39,0,0,1,28,6.29a5.85,5.85,0,0,1,5.27,2.85,9.25,9.25,0,0,1,1,4.91A9.41,9.41,0,0,1,33.24,18.89Zm-2.73-8.22A2.75,2.75,0,0,0,28,9.41a2.7,2.7,0,0,0-2.55,1.26,3.5,3.5,0,0,0-.4,1.38V16a3.5,3.5,0,0,0,.4,1.38A2.77,2.77,0,0,0,28,18.64a2.77,2.77,0,0,0,2.55-1.29A6.53,6.53,0,0,0,31.12,14,6.8,6.8,0,0,0,30.51,10.67Z" style="fill:#fff"/><path d="M47.89,18.89a5.85,5.85,0,0,1-5.27,2.85,6.38,6.38,0,0,1-2.94-.67v7.08H36.55V6.5h3.13V7a6.38,6.38,0,0,1,2.94-.67,5.85,5.85,0,0,1,5.27,2.85,9.27,9.27,0,0,1,1,4.91A9.41,9.41,0,0,1,47.89,18.89Zm-2.73-8.22a2.75,2.75,0,0,0-2.55-1.26,2.7,2.7,0,0,0-2.55,1.26,3.47,3.47,0,0,0-.4,1.38V16a3.47,3.47,0,0,0,.4,1.38,3.16,3.16,0,0,0,5.09,0A6.53,6.53,0,0,0,45.78,14,6.8,6.8,0,0,0,45.16,10.67Z" style="fill:#fff"/><path d="M75,.57,70.18,21.25H66.06L62.68,7.77,59.28,21.25H55.16L50.33.57h3.82l3.2,14.54L61.17.57h3L68,15.12,71.18.57Z" style="fill:#fff"/><path d="M77.56,21.27V6.12h3.16V21.27Z" style="fill:#fff"/><path d="M77.56,4.21V.57h3.16V4.21Z" style="fill:#fff"/></svg>