<?xml version="1.0" encoding="UTF-8"?>
<svg id="Layer_1" data-name="Layer 1" xmlns="http://www.w3.org/2000/svg" viewBox="0 0 432 116.05"><title>appdirect-logo-onecolor-dark</title><path d="M171.38,82.95l-6-15H144.71l-6,15H130l21.22-53.48h7.66l21.23,53.48ZM155.06,41.8l-7.28,18.39h14.56Z" style="fill:#fff"/><path d="M212.43,76.67c-2.61,4.6-7.51,7.13-13.18,7.13a16,16,0,0,1-7.36-1.69v17.7h-7.82V45.71h7.82v1.15a16,16,0,0,1,7.36-1.69c5.67,0,10.57,2.53,13.18,7.12C214.8,56.36,215,61,215,64.56,215,68.24,214.72,72.76,212.43,76.67Zm-6.82-20.53c-1.07-1.92-3.3-3.14-6.36-3.14s-5.29,1.23-6.36,3.14a8.64,8.64,0,0,0-1,3.45v9.81a8.66,8.66,0,0,0,1,3.45c1.07,1.92,3.29,3.22,6.36,3.22s5.29-1.3,6.36-3.22c1.3-2.14,1.53-5.06,1.53-8.35C207.14,61.42,206.91,58.35,205.61,56.13Z" style="fill:#fff"/><path d="M249,76.67c-2.6,4.6-7.51,7.13-13.18,7.13a15.94,15.94,0,0,1-7.36-1.69v17.7h-7.82V45.71h7.82v1.15a15.93,15.93,0,0,1,7.36-1.69c5.67,0,10.57,2.53,13.18,7.12,2.37,4.06,2.6,8.73,2.53,12.26C251.53,68.24,251.3,72.76,249,76.67Zm-6.82-20.53c-1.07-1.92-3.3-3.14-6.36-3.14s-5.29,1.23-6.36,3.14a8.7,8.7,0,0,0-1,3.45v9.81a8.71,8.71,0,0,0,1,3.45c1.07,1.92,3.29,3.22,6.36,3.22s5.29-1.3,6.36-3.22c1.3-2.14,1.53-5.06,1.53-8.35C243.71,61.42,243.48,58.35,242.18,56.13Z" style="fill:#fff"/><path d="M297.19,67.85c-1.92,12.8-10.8,15.09-22.22,15.09H258V29.46H275c11.42,0,20.3,2.22,22.22,15.09a84.05,84.05,0,0,1,.62,11.65A84.63,84.63,0,0,1,297.19,67.85ZM275,37.36h-8.81V75H275c15.25,0,14.71-5.21,14.71-18.77S290.22,37.36,275,37.36Z" style="fill:#fff"/><path d="M305.38,82.95V45.1h7.89V82.95Z" style="fill:#fff"/><path d="M305.38,38.19V29.1h7.89v9.09Z" style="fill:#fff"/><path d="M341.39,54.14a9.2,9.2,0,0,0-5.06-1.53c-3.14,0-7.13,1.84-7.13,5.44v24.9h-7.66V45.48h7.66v1.15a17,17,0,0,1,7.13-1.53,19.38,19.38,0,0,1,8.51,2Z" style="fill:#fff"/><path d="M353.57,67.24a11.68,11.68,0,0,0,1.53,5.44c1.3,1.91,4.06,3.45,7.74,3.45a9.94,9.94,0,0,0,8-3.6l6.29,4.67a18.15,18.15,0,0,1-14.18,6.44c-6.13.08-11.5-2.45-14.41-6.82-2.68-4-2.91-9.12-2.91-12.49,0-3.68.31-8.58,2.91-12.49,3-4.45,7.82-6.67,13.71-6.67A14.7,14.7,0,0,1,375,51.92c2.76,4.14,2.37,10.5,2.29,15.32ZM368.44,56a7,7,0,0,0-6.29-3.22c-5.06,0-7.51,2.61-8.35,6.9h15.55A10,10,0,0,0,368.44,56Z" style="fill:#fff"/><path d="M398.92,83.56c-10.88,0-17.32-8.2-17.32-19.46S388,44.56,398.92,44.56c5.36,0,8.89,1.46,14.41,7.36L407.58,57c-4.14-4.44-5.82-5.06-8.66-5.06a8.5,8.5,0,0,0-7.28,3.45c-1.38,1.84-2,4.44-2,8.73s.61,6.82,2,8.66a8.32,8.32,0,0,0,7.28,3.45c2.84,0,4.52-.61,8.66-5l5.75,5.06C407.81,82.11,404.28,83.56,398.92,83.56Z" style="fill:#fff"/><path d="M417.83,45.1V36.26L425.33,35V45.1H432v7h-6.67V73a6.15,6.15,0,0,0,.08,1.69.9.9,0,0,0,.92.54h4.83v7.74h-4.83a8.11,8.11,0,0,1-7.12-3.83A11.25,11.25,0,0,1,417.83,73V45.1Z" style="fill:#fff"/><polygon points="6.34 92.41 38.26 78.52 53.7 32.75 38.07 7.93 6.34 92.41" style="fill:#fff"/><polygon points="37.36 0 76.52 61.94 99.54 51.95 62.83 0 37.36 0" style="fill:#fff"/><polygon points="116.22 48.76 0 99.14 24.77 116.05 102.66 82.95 116.22 48.76" style="fill:#fff"/></svg>
